<svg width="1500" height="1500" viewBox="0 0 1500 1500" fill="none" xmlns="http://www.w3.org/2000/svg">
<path d="M729.326 579.543L692.23 937.437L750.515 995.722L808.8 937.437L771.697 579.543L805.322 545.918C823.198 550.905 842.231 558.158 863.468 567.699L972.431 1295.06H527.568L636.531 567.699C658.043 557.933 677.291 550.576 695.375 545.592L729.326 579.543Z" fill="#00244D"/>
<path d="M749.997 488.215C712.442 488.215 679.179 474.266 650.208 446.368C622.31 417.397 608.361 384.134 608.361 346.579C608.361 306.878 622.31 273.615 650.208 246.79C679.179 218.892 712.442 204.943 749.997 204.943C788.625 204.943 821.888 218.892 849.786 246.79C877.684 273.615 891.633 306.878 891.633 346.579C891.633 384.134 877.684 417.397 849.786 446.368C821.888 474.266 788.625 488.215 749.997 488.215Z" fill="white"/>
</svg>
