<svg width="1500" height="1500" viewBox="0 0 1500 1500" fill="none" xmlns="http://www.w3.org/2000/svg">
<path d="M729.327 579.543L692.23 937.436L750.516 995.722L808.801 937.436L771.698 579.543L805.323 545.918C823.198 550.905 842.231 558.157 863.469 567.699L972.432 1295.06H527.569L636.532 567.699C658.043 557.932 677.291 550.576 695.376 545.592L729.327 579.543Z" fill="white"/>
<path d="M749.999 488.215C712.444 488.215 679.181 474.266 650.21 446.368C622.312 417.397 608.363 384.134 608.363 346.579C608.363 306.878 622.312 273.615 650.21 246.79C679.181 218.892 712.444 204.943 749.999 204.943C788.627 204.943 821.89 218.892 849.788 246.79C877.686 273.615 891.635 306.878 891.635 346.579C891.635 384.134 877.686 417.397 849.788 446.368C821.89 474.266 788.627 488.215 749.999 488.215Z" fill="white"/>
</svg>
