<svg width="1500" height="1500" viewBox="0 0 1500 1500" fill="none" xmlns="http://www.w3.org/2000/svg">
<path d="M729.326 579.543L692.23 937.437L750.515 995.722L808.8 937.437L771.697 579.543L805.322 545.918C823.198 550.905 842.231 558.158 863.468 567.699L972.431 1295.06H527.568L636.531 567.699C658.043 557.933 677.291 550.576 695.375 545.592L729.326 579.543Z" fill="#00244D"/>
<path d="M729.326 579.543L692.23 937.437L750.515 995.722L808.8 937.437L771.697 579.543L805.322 545.918C823.198 550.905 842.231 558.158 863.468 567.699L972.431 1295.06H527.568L636.531 567.699C658.043 557.933 677.291 550.576 695.375 545.592L729.326 579.543Z" fill="url(#paint0_linear_83_682)"/>
<path d="M749.998 488.215C712.443 488.215 679.18 474.266 650.209 446.368C622.311 417.397 608.362 384.134 608.362 346.579C608.362 306.878 622.311 273.615 650.209 246.79C679.18 218.892 712.443 204.943 749.998 204.943C788.626 204.943 821.889 218.892 849.787 246.79C877.685 273.615 891.634 306.878 891.634 346.579C891.634 384.134 877.685 417.397 849.787 446.368C821.889 474.266 788.626 488.215 749.998 488.215Z" fill="white"/>
<defs>
<linearGradient id="paint0_linear_83_682" x1="2540.23" y1="826.639" x2="-908.161" y2="826.639" gradientUnits="userSpaceOnUse">
<stop stop-color="#38B6FF"/>
<stop offset="1" stop-color="#007AFF"/>
</linearGradient>
</defs>
</svg>
