<svg width="3805" height="3282" viewBox="0 0 3805 3282" fill="none" xmlns="http://www.w3.org/2000/svg" xmlns:xlink="http://www.w3.org/1999/xlink">
<rect width="3805" height="3282" fill="url(#pattern0_35_156)"/>
<defs>
<pattern id="pattern0_35_156" patternUnits="userSpaceOnUse" patternTransform="matrix(1089.54 0 0 921.755 1630.11 1180.12)" preserveAspectRatio="none" viewBox="0 0 576.477 487.701" width="1" height="1">
<use xlink:href="#pattern0_35_156_inner" transform="translate(0 -487.701)"/>
<use xlink:href="#pattern0_35_156_inner" transform="translate(288.239 -243.851)"/>
<g id="pattern0_35_156_inner">
<path d="M32.7623 127.513L26.7383 185.629L36.203 195.094L45.6676 185.629L39.6426 127.513L45.1028 122.053C48.0055 122.863 51.0961 124.04 54.5447 125.59L72.2385 243.701H0L17.6938 125.59C21.1869 124.004 24.3125 122.809 27.2491 122L32.7623 127.513Z" fill="#00244D"/>
<path d="M176.762 127.513L170.738 185.629L180.203 195.094L189.668 185.629L183.643 127.513L189.103 122.053C192.005 122.863 195.096 124.04 198.545 125.59L216.239 243.701H144L161.694 125.59C165.187 124.004 168.312 122.809 171.249 122L176.762 127.513Z" fill="#00244D"/>
<path d="M176.762 127.513L170.738 185.629L180.203 195.094L189.668 185.629L183.643 127.513L189.103 122.053C192.005 122.863 195.096 124.04 198.545 125.59L216.239 243.701H144L161.694 125.59C165.187 124.004 168.312 122.809 171.249 122L176.762 127.513Z" fill="url(#paint0_linear_35_156)"/>
<path d="M248.762 371.513L242.738 429.629L252.203 439.094L261.668 429.629L255.643 371.513L261.103 366.053C264.005 366.863 267.096 368.04 270.545 369.59L288.239 487.701H216L233.694 369.59C237.187 368.004 240.312 366.809 243.249 366L248.762 371.513Z" fill="#00244D"/>
<path d="M248.762 371.513L242.738 429.629L252.203 439.094L261.668 429.629L255.643 371.513L261.103 366.053C264.005 366.863 267.096 368.04 270.545 369.59L288.239 487.701H216L233.694 369.59C237.187 368.004 240.312 366.809 243.249 366L248.762 371.513Z" fill="url(#paint1_linear_35_156)"/>
<path d="M104.762 371.513L98.7383 429.629L108.203 439.094L117.668 429.629L111.643 371.513L117.103 366.053C120.005 366.863 123.096 368.04 126.545 369.59L144.239 487.701H72L89.6938 369.59C93.1869 368.004 96.3125 366.809 99.2491 366L104.762 371.513Z" fill="#00244D"/>
<path d="M104.762 360.188L98.7383 302.072L108.203 292.607L117.668 302.072L111.643 360.188L117.103 365.648C120.005 364.838 123.096 363.661 126.545 362.111L144.239 244H72L89.6938 362.111C93.1869 363.697 96.3125 364.892 99.2491 365.701L104.762 360.188Z" fill="#00244D"/>
<path d="M104.762 360.188L98.7383 302.072L108.203 292.607L117.668 302.072L111.643 360.188L117.103 365.648C120.005 364.838 123.096 363.661 126.545 362.111L144.239 244H72L89.6938 362.111C93.1869 363.697 96.3125 364.892 99.2491 365.701L104.762 360.188Z" fill="url(#paint2_linear_35_156)"/>
<path d="M248.762 359.872L242.738 301.756L252.203 292.291L261.668 301.756L255.643 359.872L261.103 365.332C264.005 364.522 267.096 363.345 270.545 361.795L288.239 243.684H216L233.694 361.795C237.187 363.381 240.312 364.576 243.249 365.385L248.762 359.872Z" fill="#00244D"/>
<path d="M176.762 116.188L170.738 58.0718L180.203 48.6072L189.668 58.0718L183.643 116.188L189.103 121.648C192.005 120.838 195.096 119.661 198.545 118.111L216.239 0H144L161.694 118.111C165.187 119.697 168.312 120.892 171.249 121.701L176.762 116.188Z" fill="#00244D"/>
<path d="M32.7623 116.188L26.7383 58.0718L36.203 48.6072L45.6676 58.0718L39.6426 116.188L45.1028 121.648C48.0055 120.838 51.0961 119.661 54.5447 118.111L72.2385 0H0L17.6938 118.111C21.1869 119.697 24.3125 120.892 27.2491 121.701L32.7623 116.188Z" fill="#00244D"/>
<path d="M32.7623 116.188L26.7383 58.0718L36.203 48.6072L45.6676 58.0718L39.6426 116.188L45.1028 121.648C48.0055 120.838 51.0961 119.661 54.5447 118.111L72.2385 0H0L17.6938 118.111C21.1869 119.697 24.3125 120.892 27.2491 121.701L32.7623 116.188Z" fill="url(#paint3_linear_35_156)"/>
</g>
<use xlink:href="#pattern0_35_156_inner" transform="translate(288.239 243.851)"/>
</pattern><linearGradient id="paint0_linear_35_156" x1="470.824" y1="167.638" x2="-89.1393" y2="167.638" gradientUnits="userSpaceOnUse">
<stop stop-color="#38B6FF"/>
<stop offset="1" stop-color="#007AFF"/>
</linearGradient>
<linearGradient id="paint1_linear_35_156" x1="542.824" y1="411.637" x2="-17.1393" y2="411.637" gradientUnits="userSpaceOnUse">
<stop stop-color="#38B6FF"/>
<stop offset="1" stop-color="#007AFF"/>
</linearGradient>
<linearGradient id="paint2_linear_35_156" x1="398.824" y1="320.064" x2="-161.139" y2="320.064" gradientUnits="userSpaceOnUse">
<stop stop-color="#38B6FF"/>
<stop offset="1" stop-color="#007AFF"/>
</linearGradient>
<linearGradient id="paint3_linear_35_156" x1="326.824" y1="76.0636" x2="-233.139" y2="76.0636" gradientUnits="userSpaceOnUse">
<stop stop-color="#38B6FF"/>
<stop offset="1" stop-color="#007AFF"/>
</linearGradient>
</defs>
</svg>
