<svg width="3805" height="3282" viewBox="0 0 3805 3282" fill="none" xmlns="http://www.w3.org/2000/svg" xmlns:xlink="http://www.w3.org/1999/xlink">
<rect width="3805" height="3282" fill="url(#pattern0_35_158)"/>
<defs>
<pattern id="pattern0_35_158" patternUnits="userSpaceOnUse" patternTransform="matrix(1089.54 0 0 653.375 1626.82 1314.31)" preserveAspectRatio="none" viewBox="-1.74121 9.91821e-05 576.477 345.701" width="1" height="1">
<use xlink:href="#pattern0_35_158_inner" transform="translate(-288.239 -518.552)"/>
<use xlink:href="#pattern0_35_158_inner" transform="translate(0 -691.402)"/>
<use xlink:href="#pattern0_35_158_inner" transform="translate(288.239 -518.552)"/>
<use xlink:href="#pattern0_35_158_inner" transform="translate(-288.239 -172.851)"/>
<use xlink:href="#pattern0_35_158_inner" transform="translate(0 -345.701)"/>
<use xlink:href="#pattern0_35_158_inner" transform="translate(288.239 -172.851)"/>
<use xlink:href="#pattern0_35_158_inner" transform="translate(-288.239 172.851)"/>
<g id="pattern0_35_158_inner">
<path d="M32.7623 59.5155L26.7383 117.632L36.203 127.096L45.6676 117.632L39.6426 59.5155L45.1028 54.0553C48.0055 54.8651 51.0961 56.0428 54.5447 57.5921L72.2385 175.703H0L17.6938 57.5921C21.1869 56.0062 24.3125 54.8116 27.2491 54.0024L32.7623 59.5155Z" fill="#00244D"/>
<path d="M176.762 59.5156L170.738 117.632L180.203 127.096L189.668 117.632L183.643 59.5156L189.103 54.0554C192.005 54.8652 195.096 56.0429 198.545 57.5922L216.239 175.704H144L161.694 57.5922C165.187 56.0063 168.312 54.8117 171.249 54.0025L176.762 59.5156Z" stroke="#00244D" stroke-width="3"/>
<path d="M176.762 59.5156L170.738 117.632L180.203 127.096L189.668 117.632L183.643 59.5156L189.103 54.0554C192.005 54.8652 195.096 56.0429 198.545 57.5922L216.239 175.704H144L161.694 57.5922C165.187 56.0063 168.312 54.8117 171.249 54.0025L176.762 59.5156Z" stroke="url(#paint0_linear_35_158)" stroke-width="3"/>
<path d="M176.762 229.513L170.738 287.629L180.203 297.094L189.668 287.629L183.643 229.513L189.103 224.053C192.005 224.863 195.096 226.041 198.545 227.59L216.239 345.701H144L161.694 227.59C165.187 226.004 168.312 224.809 171.249 224L176.762 229.513Z" fill="#00244D"/>
<path d="M176.762 229.513L170.738 287.629L180.203 297.094L189.668 287.629L183.643 229.513L189.103 224.053C192.005 224.863 195.096 226.041 198.545 227.59L216.239 345.701H144L161.694 227.59C165.187 226.004 168.312 224.809 171.249 224L176.762 229.513Z" fill="url(#paint1_linear_35_158)"/>
<path d="M32.7623 229.513L26.7383 287.629L36.203 297.094L45.6676 287.629L39.6426 229.513L45.1028 224.053C48.0055 224.863 51.0961 226.041 54.5447 227.59L72.2385 345.701H0L17.6938 227.59C21.1869 226.004 24.3125 224.809 27.2491 224L32.7623 229.513Z" stroke="#00244D" stroke-width="3"/>
<path d="M104.762 292.19L98.7383 234.074L108.203 224.609L117.668 234.074L111.643 292.19L117.103 297.65C120.005 296.84 123.096 295.663 126.545 294.113L144.239 176.002H72L89.6938 294.113C93.1869 295.699 96.3125 296.894 99.2491 297.703L104.762 292.19Z" stroke="#00244D" stroke-width="3"/>
<path d="M104.762 292.19L98.7383 234.074L108.203 224.609L117.668 234.074L111.643 292.19L117.103 297.65C120.005 296.84 123.096 295.663 126.545 294.113L144.239 176.002H72L89.6938 294.113C93.1869 295.699 96.3125 296.894 99.2491 297.703L104.762 292.19Z" stroke="url(#paint2_linear_35_158)" stroke-width="3"/>
<path d="M248.762 289.874L242.738 231.758L252.203 222.293L261.668 231.758L255.643 289.874L261.103 295.334C264.005 294.524 267.096 293.347 270.545 291.797L288.239 173.686H216L233.694 291.797C237.187 293.383 240.312 294.578 243.249 295.387L248.762 289.874Z" stroke="#00244D" stroke-width="3"/>
<path d="M248.762 118.188L242.738 60.072L252.203 50.6073L261.668 60.072L255.643 118.188L261.103 123.648C264.005 122.838 267.096 121.661 270.545 120.111L288.239 2.00014H216L233.694 120.111C237.187 121.697 240.312 122.892 243.249 123.701L248.762 118.188Z" fill="#00244D"/>
<path d="M104.762 116.188L98.7383 58.0719L108.203 48.6073L117.668 58.0719L111.643 116.188L117.103 121.648C120.005 120.838 123.096 119.661 126.545 118.111L144.239 9.91821e-05H72L89.6938 118.111C93.1869 119.697 96.3125 120.892 99.2491 121.701L104.762 116.188Z" fill="#00244D"/>
<path d="M104.762 116.188L98.7383 58.0719L108.203 48.6073L117.668 58.0719L111.643 116.188L117.103 121.648C120.005 120.838 123.096 119.661 126.545 118.111L144.239 9.91821e-05H72L89.6938 118.111C93.1869 119.697 96.3125 120.892 99.2491 121.701L104.762 116.188Z" fill="url(#paint3_linear_35_158)"/>
</g>
<use xlink:href="#pattern0_35_158_inner" transform="translate(288.239 172.851)"/>
</pattern><linearGradient id="paint0_linear_35_158" x1="470.824" y1="99.6399" x2="-89.1393" y2="99.6399" gradientUnits="userSpaceOnUse">
<stop stop-color="#38B6FF"/>
<stop offset="1" stop-color="#007AFF"/>
</linearGradient>
<linearGradient id="paint1_linear_35_158" x1="470.824" y1="269.638" x2="-89.1393" y2="269.638" gradientUnits="userSpaceOnUse">
<stop stop-color="#38B6FF"/>
<stop offset="1" stop-color="#007AFF"/>
</linearGradient>
<linearGradient id="paint2_linear_35_158" x1="398.824" y1="252.066" x2="-161.139" y2="252.066" gradientUnits="userSpaceOnUse">
<stop stop-color="#38B6FF"/>
<stop offset="1" stop-color="#007AFF"/>
</linearGradient>
<linearGradient id="paint3_linear_35_158" x1="398.824" y1="76.0637" x2="-161.139" y2="76.0637" gradientUnits="userSpaceOnUse">
<stop stop-color="#38B6FF"/>
<stop offset="1" stop-color="#007AFF"/>
</linearGradient>
</defs>
</svg>
