<svg width="2000" height="931" viewBox="0 0 2000 931" fill="none" xmlns="http://www.w3.org/2000/svg">
<path d="M1612.3 718.269C1577.3 718.269 1546.5 710.958 1519.92 696.336C1493.33 681.27 1472.28 660.666 1456.78 634.523C1441.71 608.38 1434.18 578.249 1434.18 544.131C1434.18 510.012 1441.49 479.881 1456.11 453.738C1471.18 427.595 1492 407.212 1518.59 392.59C1545.62 377.524 1576.19 369.992 1610.31 369.992C1645.32 369.992 1676.11 377.524 1702.7 392.59C1729.73 407.212 1750.55 427.595 1765.17 453.738C1780.24 479.881 1787.77 510.012 1787.77 544.131C1787.77 578.249 1780.24 608.38 1765.17 634.523C1750.55 660.666 1729.95 681.27 1703.36 696.336C1676.78 710.958 1646.42 718.269 1612.3 718.269ZM1612.3 622.559C1625.6 622.559 1637.34 619.236 1647.53 612.59C1658.17 605.943 1666.36 596.86 1672.12 585.339C1678.33 573.375 1681.43 559.639 1681.43 544.131C1681.43 528.622 1678.33 515.107 1672.12 503.587C1666.36 491.623 1658.17 482.318 1647.53 475.671C1636.9 469.025 1624.71 465.702 1610.97 465.702C1597.24 465.702 1585.05 469.025 1574.42 475.671C1563.78 482.318 1555.37 491.623 1549.16 503.587C1543.4 515.107 1540.52 528.622 1540.52 544.131C1540.52 559.639 1543.4 573.375 1549.16 585.339C1555.37 596.86 1563.78 605.943 1574.42 612.59C1585.5 619.236 1598.12 622.559 1612.3 622.559Z" fill="white"/>
<path d="M1612.3 718.269C1577.3 718.269 1546.5 710.958 1519.92 696.336C1493.33 681.27 1472.28 660.666 1456.78 634.523C1441.71 608.38 1434.18 578.249 1434.18 544.131C1434.18 510.012 1441.49 479.881 1456.11 453.738C1471.18 427.595 1492 407.212 1518.59 392.59C1545.62 377.524 1576.19 369.992 1610.31 369.992C1645.32 369.992 1676.11 377.524 1702.7 392.59C1729.73 407.212 1750.55 427.595 1765.17 453.738C1780.24 479.881 1787.77 510.012 1787.77 544.131C1787.77 578.249 1780.24 608.38 1765.17 634.523C1750.55 660.666 1729.95 681.27 1703.36 696.336C1676.78 710.958 1646.42 718.269 1612.3 718.269ZM1612.3 622.559C1625.6 622.559 1637.34 619.236 1647.53 612.59C1658.17 605.943 1666.36 596.86 1672.12 585.339C1678.33 573.375 1681.43 559.639 1681.43 544.131C1681.43 528.622 1678.33 515.107 1672.12 503.587C1666.36 491.623 1658.17 482.318 1647.53 475.671C1636.9 469.025 1624.71 465.702 1610.97 465.702C1597.24 465.702 1585.05 469.025 1574.42 475.671C1563.78 482.318 1555.37 491.623 1549.16 503.587C1543.4 515.107 1540.52 528.622 1540.52 544.131C1540.52 559.639 1543.4 573.375 1549.16 585.339C1555.37 596.86 1563.78 605.943 1574.42 612.59C1585.5 619.236 1598.12 622.559 1612.3 622.559Z" fill="#00244D"/>
<path d="M1122.64 710.294L1107.12 626.547L1271.52 462.378H1122.64L1107.12 377.968H1400.46V451.079L1250.91 626.547H1401.13V710.294H1122.64Z" fill="white"/>
<path d="M1122.64 710.294L1107.12 626.547L1271.52 462.378H1122.64L1107.12 377.968H1400.46V451.079L1250.91 626.547H1401.13V710.294H1122.64Z" fill="#00244D"/>
<path d="M735.293 709.629C695.857 709.629 667.233 708.964 647.736 690.354C628.683 671.301 619.156 644.271 619.156 609.266V274.282H722.842V583.345C722.842 596.638 722.64 603.063 727.514 609.266C732.388 615.47 742.215 615.392 752.406 615.392C756.394 615.392 775.697 615.392 785.077 615.392C813.081 615.392 823.971 615.392 833.306 615.392L817.748 709.629C800.635 709.629 800.635 709.629 774.187 709.629C757.073 709.629 749.029 709.629 735.293 709.629ZM567.314 465.037V377.968H833.306L814.17 465.037H567.314Z" fill="white"/>
<path d="M735.293 709.629C695.857 709.629 667.233 708.964 647.736 690.354C628.683 671.301 619.156 644.271 619.156 609.266V274.282H722.842V583.345C722.842 596.638 722.64 603.063 727.514 609.266C732.388 615.47 742.215 615.392 752.406 615.392C756.394 615.392 775.697 615.392 785.077 615.392C813.081 615.392 823.971 615.392 833.306 615.392L817.748 709.629C800.635 709.629 800.635 709.629 774.187 709.629C757.073 709.629 749.029 709.629 735.293 709.629ZM567.314 465.037V377.968H833.306L814.17 465.037H567.314Z" fill="#00244D"/>
<path d="M212.229 710.293V377.968H309.932L315.914 439.116V710.293H212.229ZM426.247 710.293V540.143L478.089 414.477L529.932 540.143V710.293H426.247ZM426.247 540.143C426.247 522.419 424.253 508.461 420.265 498.27C416.277 487.635 410.516 479.881 402.984 475.007C395.894 470.133 387.032 467.474 376.398 467.031C356.458 466.588 341.393 472.127 331.201 483.647C321.01 494.725 315.914 511.784 315.914 534.825H284.676C284.676 499.82 289.993 470.133 300.627 445.762C311.262 420.948 325.662 402.117 343.83 389.267C362.44 376.417 383.93 369.992 408.301 369.992C434.887 369.992 457.264 375.53 475.431 386.608C493.598 397.242 507.112 413.637 515.975 435.792C525.28 457.947 529.932 486.306 529.932 520.868V540.143H426.247Z" fill="white"/>
<path d="M212.229 710.293V377.968H309.932L315.914 439.116V710.293H212.229ZM426.247 710.293V540.143L478.089 414.477L529.932 540.143V710.293H426.247ZM426.247 540.143C426.247 522.419 424.253 508.461 420.265 498.27C416.277 487.635 410.516 479.881 402.984 475.007C395.894 470.133 387.032 467.474 376.398 467.031C356.458 466.588 341.393 472.127 331.201 483.647C321.01 494.725 315.914 511.784 315.914 534.825H284.676C284.676 499.82 289.993 470.133 300.627 445.762C311.262 420.948 325.662 402.117 343.83 389.267C362.44 376.417 383.93 369.992 408.301 369.992C434.887 369.992 457.264 375.53 475.431 386.608C493.598 397.242 507.112 413.637 515.975 435.792C525.28 457.947 529.932 486.306 529.932 520.868V540.143H426.247Z" fill="#00244D"/>
<path d="M960.384 383.38L943.435 546.898L970.065 573.528L996.695 546.898L979.743 383.38L995.106 368.017C1003.27 370.295 1011.97 373.609 1021.67 377.968L1071.46 710.292H868.202L917.987 377.968C927.815 373.506 936.609 370.144 944.872 367.868L960.384 383.38Z" fill="white"/>
<path d="M960.384 383.38L943.435 546.898L970.065 573.528L996.695 546.898L979.743 383.38L995.106 368.017C1003.27 370.295 1011.97 373.609 1021.67 377.968L1071.46 710.292H868.202L917.987 377.968C927.815 373.506 936.609 370.144 944.872 367.868L960.384 383.38Z" fill="#00244D"/>
<path d="M969.828 341.653C952.67 341.653 937.472 335.28 924.236 322.533C911.489 309.297 905.116 294.099 905.116 276.94C905.116 258.801 911.489 243.604 924.236 231.348C937.472 218.601 952.67 212.228 969.828 212.228C987.477 212.228 1002.67 218.601 1015.42 231.348C1028.17 243.604 1034.54 258.801 1034.54 276.94C1034.54 294.099 1028.17 309.297 1015.42 322.533C1002.67 335.28 987.477 341.653 969.828 341.653Z" fill="white"/>
</svg>
