<svg width="2000" height="931" viewBox="0 0 2000 931" fill="none" xmlns="http://www.w3.org/2000/svg">
<path d="M1612.3 718.269C1577.3 718.269 1546.5 710.958 1519.92 696.336C1493.33 681.27 1472.28 660.666 1456.77 634.523C1441.71 608.38 1434.18 578.249 1434.18 544.13C1434.18 510.012 1441.49 479.881 1456.11 453.738C1471.18 427.595 1492 407.212 1518.59 392.59C1545.62 377.524 1576.19 369.992 1610.31 369.992C1645.31 369.992 1676.11 377.524 1702.7 392.59C1729.73 407.212 1750.55 427.595 1765.17 453.738C1780.24 479.881 1787.77 510.012 1787.77 544.13C1787.77 578.249 1780.24 608.38 1765.17 634.523C1750.55 660.666 1729.95 681.27 1703.36 696.336C1676.77 710.958 1646.42 718.269 1612.3 718.269ZM1612.3 622.559C1625.6 622.559 1637.34 619.236 1647.53 612.59C1658.16 605.943 1666.36 596.86 1672.12 585.339C1678.33 573.375 1681.43 559.639 1681.43 544.13C1681.43 528.622 1678.33 515.107 1672.12 503.587C1666.36 491.623 1658.16 482.318 1647.53 475.671C1636.9 469.025 1624.71 465.702 1610.97 465.702C1597.24 465.702 1585.05 469.025 1574.42 475.671C1563.78 482.318 1555.36 491.623 1549.16 503.587C1543.4 515.107 1540.52 528.622 1540.52 544.13C1540.52 559.639 1543.4 573.375 1549.16 585.339C1555.36 596.86 1563.78 605.943 1574.42 612.59C1585.5 619.236 1598.12 622.559 1612.3 622.559Z" fill="white"/>
<path d="M1122.64 710.294L1107.12 626.547L1271.52 462.378H1122.64L1107.12 377.968H1400.46V451.079L1250.91 626.547H1401.13V710.294H1122.64Z" fill="white"/>
<path d="M735.292 709.629C695.856 709.629 667.232 708.964 647.735 690.354C628.682 671.301 619.155 644.271 619.155 609.266V274.282H722.841V583.345C722.841 596.638 722.639 603.063 727.513 609.266C732.387 615.47 742.214 615.392 752.405 615.392C756.393 615.392 775.696 615.392 785.076 615.392C813.08 615.392 823.97 615.392 833.305 615.392L817.747 709.629C800.634 709.629 800.634 709.629 774.186 709.629C757.072 709.629 749.028 709.629 735.292 709.629ZM567.313 465.037V377.967H833.305L814.169 465.037H567.313Z" fill="white"/>
<path d="M212.228 710.293V377.967H309.931L315.913 439.115V710.293H212.228ZM426.246 710.293V540.143L478.088 414.476L529.931 540.143V710.293H426.246ZM426.246 540.143C426.246 522.418 424.252 508.461 420.264 498.27C416.276 487.635 410.515 479.881 402.983 475.007C395.893 470.133 387.031 467.474 376.397 467.031C356.457 466.588 341.392 472.127 331.2 483.647C321.009 494.725 315.913 511.784 315.913 534.825H284.675C284.675 499.82 289.992 470.133 300.626 445.762C311.261 420.948 325.661 402.116 343.829 389.267C362.439 376.417 383.929 369.992 408.3 369.992C434.886 369.992 457.263 375.53 475.43 386.608C493.597 397.242 507.112 413.637 515.974 435.792C525.279 457.947 529.931 486.306 529.931 520.868V540.143H426.246Z" fill="white"/>
<path d="M960.383 383.38L943.434 546.898L970.064 573.528L996.694 546.898L979.742 383.38L995.105 368.016C1003.27 370.295 1011.97 373.609 1021.67 377.968L1071.46 710.292H868.201L917.986 377.968C927.814 373.506 936.608 370.144 944.871 367.868L960.383 383.38Z" fill="white"/>
<path d="M969.827 341.653C952.669 341.653 937.471 335.28 924.235 322.533C911.488 309.297 905.115 294.099 905.115 276.94C905.115 258.801 911.488 243.604 924.235 231.347C937.471 218.601 952.669 212.228 969.827 212.228C987.476 212.228 1002.67 218.601 1015.42 231.347C1028.17 243.604 1034.54 258.801 1034.54 276.94C1034.54 294.099 1028.17 309.297 1015.42 322.533C1002.67 335.28 987.476 341.653 969.827 341.653Z" fill="white"/>
</svg>
